<svg width="44" height="44" viewBox="0 0 44 44" fill="none" xmlns="http://www.w3.org/2000/svg">
<g clip-path="url(#clip0_80_304)">
<path d="M22.0001 0C8.82914 0 -1.67731 11.6329 0.222539 25.1684C1.57354 34.7956 9.17895 42.4077 18.8042 43.7708C32.347 45.6887 43.9994 35.1803 43.9994 22C43.9994 9.86713 34.1296 0 21.9994 0L22.0001 0ZM22.0001 39.0189C18.6266 39.0189 15.361 38.0264 12.5585 36.1493L11.8468 35.6749L11.6008 35.4611C10.4274 34.4418 9.33241 33.3361 8.32519 32.1526L7.85073 31.4409C5.97367 28.6391 4.9812 25.3735 4.9812 21.9993C4.9812 12.6147 12.6154 4.98047 22.0001 4.98047C25.3762 4.98047 28.6398 5.97027 31.4443 7.84733L32.1533 8.32179L33.1887 9.15343C34.3708 10.1023 35.374 11.2543 36.1521 12.5557C38.0264 15.3603 39.0189 18.6232 39.0189 22C39.0189 31.3819 31.3847 39.0189 22.0001 39.0189Z" fill="#BA4717"/>
<path d="M28.41 14.5058C25.8253 14.4254 23.2767 15.5687 22.0564 17.8713C20.8314 15.5405 18.1414 14.3329 15.479 14.5165C14.6319 12.8633 14.6514 11.332 14.6969 10.6793C18.2882 10.1218 21.7354 12.1918 21.9432 15.8381C22.1429 12.2113 25.5525 10.1338 29.1867 10.6793C29.2765 11.9613 29.0259 13.3002 28.41 14.5058Z" fill="#BA4717"/>
<path d="M28.5177 19.6619C25.9236 19.4829 23.1948 20.6423 21.943 23.0139C20.7595 20.7723 18.1138 19.493 15.5841 19.6511C14.7511 17.9979 14.7645 16.4713 14.8127 15.8247C18.2204 15.1753 21.8452 17.2809 22.0563 20.9834C22.2379 17.3519 25.8077 15.2068 29.3052 15.8247C29.3903 17.1428 29.1195 18.4831 28.5177 19.6619Z" fill="#BA4717"/>
<path d="M28.4132 24.7965C25.988 24.6397 23.296 25.8305 22.0569 28.1593C20.8078 25.795 18.1922 24.6967 15.4768 24.8045C14.6324 23.1513 14.6519 21.6281 14.6974 20.9727C18.2793 20.4131 21.7688 22.5086 21.9437 26.1287C22.1078 22.9282 25.0565 20.383 29.1872 20.9727C29.2328 21.6227 29.2522 23.1493 28.4132 24.7965Z" fill="#BA4717"/>
<path d="M22.065 33.9305H22.0463C17.9095 33.9305 14.5065 30.3653 14.8134 26.118C18.266 25.4619 21.8486 27.6184 22.057 31.2714C22.2238 27.9776 25.2964 25.5289 29.3059 26.118C29.5646 30.4163 26.2447 33.897 22.065 33.9305Z" fill="#BA4717"/>
</g>
<defs>
<clipPath id="clip0_80_304">
<rect width="44" height="43.9973" fill="white"/>
</clipPath>
</defs>
</svg>
