<?xml version="1.0" encoding="UTF-8"?>
<svg id="Calque_2" data-name="Calque 2" xmlns="http://www.w3.org/2000/svg" version="1.1" viewBox="0 0 915.9 804.5">
  <defs>
    <style>
      .cls-1 {
        fill: none;
        stroke: #fff;
        stroke-miterlimit: 10;
        stroke-width: 6px;
      }

      .cls-2 {
        fill: #fff;
      }

      .cls-2, .cls-3 {
        stroke-width: 0px;
      }

      .cls-3 {
        fill: #fcfcfc;
      }
    </style>
  </defs>
  <g>
    <path class="cls-2" d="M325.9,634.9v-70c0-15.1-5-22.1-16-22.1s-21.2,9.8-21.2,28.2v63.9h-27.3v-70c0-15.1-5-22.1-15.8-22.1s-21.2,9.8-21.2,28.2v63.9h-27.1v-112.8h26.9v18.4c5.5-12,15.1-20.6,30.6-20.6s26.7,7,31.3,21.2c5.7-13.1,16.8-21.2,32.4-21.2,23.2,0,34.6,13.1,34.6,40.5v74.6h-27.1Z"/>
    <path class="cls-2" d="M369.2,578.5c0-34.8,19.7-58.6,56-58.6s56.2,24.1,56.2,57.3-.2,4.6-.4,7.2h-83.6c.9,23,11.8,33.5,29.1,33.5s23.2-7,26.5-18.6h26c-4.8,23.2-22.1,37.8-52.5,37.8s-57.3-23-57.3-58.6h0ZM397.5,566h55.8c-2.4-17.9-12.5-26.9-28-26.9s-25.4,9-27.8,26.9Z"/>
    <path class="cls-2" d="M569.6,634.9v-69.1c0-15.3-5.5-23-19.2-23s-24.5,10.7-24.5,29.1v63h-28.2v-112.8h26.9v18.4c6.1-12,16.2-20.6,34.6-20.6s38.7,13.1,38.7,40.5v74.6h-28.2Z"/>
    <path class="cls-2" d="M618.3,596.6v-74.6h28.2v69.1c0,15.3,5.5,23,19.2,23s24.5-10.7,24.5-29.1v-63h28.2v112.8h-26.9v-18.4c-6.1,12-16.2,20.6-34.8,20.6s-38.5-13.1-38.5-40.5h0Z"/>
  </g>
  <path class="cls-2" d="M309.1,680.9v78.3c0,25,20.3,45.3,45.3,45.3h207c25,0,45.3-20.3,45.3-45.3v-78.3h-297.5Z"/>
  <path class="cls-2" d="M606.7,455.5v-24.6c0-10-3.3-19.6-9.3-27.5l-19.3-25.2c-26-34-42.1-24.3-45.3-56-1.2-12-2.5-24-4.7-35.9l-33.4-184.4h-73.1l-33.9,183.7c-2.1,11.6-3.4,23.4-4.5,35.1-3,32.6-18.3,23.7-45.4,58.1l-18.8,23.9c-6.3,8-9.7,17.9-9.7,28v25l297.5-.4h0Z"/>
  <path class="cls-2" d="M490.9,153.3h-65.9c-11.2,0-20.4-8.4-20.4-18.8l15.3-78.4c1.3-6.9,7.8-11.9,15.4-11.9h45.6c7.6,0,14,5,15.4,11.9l15,78.3c0,10.4-9.1,18.8-20.4,18.8h0Z"/>
  <rect class="cls-2" x="418.1" y="45.8" width="79.7" height="13.6" rx="6.5" ry="6.5"/>
  <rect class="cls-2" x="418.1" y="33.6" width="79.7" height="13.6" rx="6.5" ry="6.5"/>
  <path class="cls-2" d="M474.2,39.3h-32.7c-8.5,0-15.8-2.9-16.9-6.8l-6.7-23.4c-1.3-4.7,6.6-8.8,16.9-8.8h46.2c10.3,0,18.2,4.2,16.9,8.8l-6.8,23.4c-1.1,3.9-8.3,6.8-16.9,6.8h0Z"/>
  <path class="cls-1" d="M498.9,166.1l16.1.3c4.7,0,9.1,3.1,11.3,7.7h0c.9,1.9,2.7,3.1,4.6,3.1h1.4c3.2,0,6.1-2.2,7.2-5.5l1.8-5.2c.6-1.6.7-3.4.3-5.1l-28-130.4c-1.3-6.2-6.3-10.6-12.1-10.6h-14.6"/>
  <path class="cls-1" d="M528.7,170.7l-.6,2.7s2.7,9.7,2.7,5.5v-1.4c0-9.6-1.2-19.2-3.6-28.4l-4.4-17c-.9-3.5-3.7-5.8-7-5.8h-15.1"/>
  <path class="cls-1" d="M432.1,19h-14.6c-5.7,0-10.7,4.4-12.1,10.6l-28,130.4c-.4,1.7-.3,3.5.3,5.1l1.8,5.2c1.1,3.3,4,5.5,7.2,5.5h1.4c1.9,0,3.7-1.2,4.6-3.1h0c2.2-4.7,6.5-7.6,11.3-7.7l16-.3"/>
  <path class="cls-1" d="M418.3,124.8h-15.1c-3.2,0-6.1,2.4-7,5.9l-4.4,17c-2.4,9.2-3.6,18.8-3.6,28.4v1.4c0,4.2,2.7-5.5,2.7-5.5l-.6-2.7"/>
  <path class="cls-3" d="M297.5,455.6H119.2c-11.8,0-21.4,9.6-21.4,21.4v182.2c0,11.8,9.6,21.4,21.4,21.4h178.4v78.3c0,25-20.3,45.3-45.3,45.3H45.3c-25,0-45.3-20.3-45.3-45.3v-328.4c0-10,3.3-19.6,9.3-27.5l19.3-25.2c26-34,42.1-24.3,45.3-56,1.2-12,2.5-24,4.7-35.9l33.4-184.4h73.1l33.9,183.7c2.1,11.6,3.4,23.4,4.5,35.1,3,32.6,18.3,23.7,45.4,58.1l18.8,23.9c6.3,8,9.7,17.9,9.7,28v25h0Z"/>
  <path class="cls-3" d="M115.8,153.1h65.9c11.2,0,20.4-8.4,20.4-18.8l-15.3-78.4c-1.3-6.9-7.8-11.9-15.4-11.9h-45.6c-7.6,0-14,5-15.4,11.9l-15,78.3c0,10.4,9.1,18.8,20.4,18.8h0Z"/>
  <rect class="cls-3" x="108.9" y="45.6" width="79.7" height="13.6" rx="6.5" ry="6.5"/>
  <rect class="cls-3" x="108.9" y="33.4" width="79.7" height="13.6" rx="6.5" ry="6.5"/>
  <path class="cls-3" d="M132.5,39.1h32.7c8.5,0,15.8-2.9,16.9-6.8l6.7-23.4c1.3-4.7-6.6-8.8-16.9-8.8h-46.2c-10.3,0-18.2,4.2-16.8,8.8l6.8,23.4c1.1,3.9,8.3,6.8,16.8,6.8h0Z"/>
  <path class="cls-1" d="M119.8,20.2h-14.6c-5.7,0-10.7,4.4-12.1,10.6l-28,130.4c-.4,1.7-.3,3.5.3,5.1l1.8,5.2c1.1,3.3,4,5.5,7.2,5.5h1.4c1.9,0,3.7-1.2,4.6-3.1h0c2.2-4.7,6.5-7.6,11.3-7.7l16-.3"/>
  <path class="cls-1" d="M106.1,125.9h-15.1c-3.2,0-6.1,2.4-7,5.9l-4.4,17c-2.4,9.2-3.6,18.8-3.6,28.4v1.4c0,4.2,2.7-5.5,2.7-5.5l-.6-2.7"/>
  <path class="cls-1" d="M174.6,18.8h14.6c5.7,0,10.7,4.4,12.1,10.6l28.1,130.4c.4,1.7.3,3.5-.3,5.1l-1.8,5.2c-1.1,3.3-4,5.5-7.2,5.5h-1.4c-1.9,0-3.7-1.2-4.6-3.1h0c-2.2-4.7-6.5-7.6-11.3-7.7l-16.1-.3"/>
  <path class="cls-1" d="M188.4,124.6h15.1c3.2,0,6.1,2.4,7,5.9l4.4,17c2.4,9.2,3.6,18.8,3.6,28.4v1.4c0,4.2-2.7-5.5-2.7-5.5l.6-2.7"/>
  <path class="cls-2" d="M618.3,455.5h178.4c11.8,0,21.4,9.6,21.4,21.4v182.2c0,11.8-9.6,21.4-21.4,21.4h-178.4v78.3c0,25,20.3,45.3,45.3,45.3h207c25,0,45.3-20.3,45.3-45.3v-328.4c0-10-3.3-19.6-9.3-27.5l-19.3-25.2c-26-34-42.1-24.3-45.3-56-1.2-12-2.5-24-4.7-35.9l-33.4-184.4h-73.1l-33.9,183.7c-2.2,11.6-3.4,23.4-4.5,35.1-3,32.6-18.3,23.7-45.4,58.1l-18.8,23.9c-6.3,8-9.7,17.9-9.7,28v25h0Z"/>
  <path class="cls-2" d="M800.1,153h-65.9c-11.2,0-20.4-8.4-20.4-18.8l15.3-78.4c1.3-6.9,7.8-11.9,15.3-11.9h45.6c7.6,0,14,5,15.4,11.9l15,78.3c0,10.4-9.1,18.8-20.4,18.8h0Z"/>
  <rect class="cls-2" x="727.2" y="45.4" width="79.7" height="13.6" rx="6.5" ry="6.5"/>
  <rect class="cls-2" x="727.2" y="33.2" width="79.7" height="13.6" rx="6.5" ry="6.5"/>
  <path class="cls-2" d="M783.4,39h-32.7c-8.5,0-15.8-2.9-16.9-6.8l-6.7-23.4C725.8,4.1,733.8,0,744,0h46.2C800.5,0,808.4,4.2,807,8.8l-6.8,23.4c-1.1,3.9-8.3,6.8-16.8,6.8h0Z"/>
  <path class="cls-1" d="M808.1,165.7l16,.3c4.7,0,9.1,3.1,11.3,7.7h0c.9,1.9,2.7,3.1,4.6,3.1h1.4c3.2,0,6.1-2.2,7.2-5.5l1.8-5.2c.6-1.6.7-3.4.3-5.1l-28-130.4c-1.3-6.2-6.3-10.6-12.1-10.6h-14.6"/>
  <path class="cls-1" d="M837.9,170.4l-.6,2.7s2.7,9.7,2.7,5.5v-1.4c0-9.6-1.2-19.2-3.6-28.4l-4.4-17c-.9-3.5-3.7-5.8-7-5.8h-15.1"/>
  <path class="cls-1" d="M741.2,18.7h-14.6c-5.7,0-10.7,4.4-12.1,10.6l-28,130.4c-.4,1.7-.3,3.5.3,5.1l1.8,5.2c1.1,3.3,4,5.5,7.2,5.5h1.4c1.9,0,3.7-1.2,4.6-3.1h0c2.2-4.7,6.5-7.6,11.3-7.7l16-.3"/>
  <path class="cls-1" d="M727.5,124.4h-15.1c-3.2,0-6.1,2.4-7,5.9l-4.4,17c-2.4,9.2-3.6,18.8-3.6,28.4v1.4c0,4.2,2.7-5.5,2.7-5.5l-.6-2.7"/>
</svg>