<?xml version="1.0" encoding="UTF-8"?>
<svg id="Calque_2" data-name="Calque 2" xmlns="http://www.w3.org/2000/svg" viewBox="0 0 852 852">
  <defs>
    <style>
      .cls-1 {
        fill: #fff;
        stroke-width: 0px;
      }
    </style>
  </defs>
  <g id="Capa_1" data-name="Capa 1">
    <path class="cls-1" d="M745.5,213h-106.5C639,95.36,543.64,0,426,0s-213,95.36-213,213h-106.5C47.68,213,0,260.68,0,319.5v355c.12,97.98,79.52,177.38,177.5,177.5h497c97.98-.12,177.38-79.52,177.5-177.5v-355c0-58.82-47.68-106.5-106.5-106.5ZM426,71c78.42,0,142,63.58,142,142h-284c0-78.42,63.58-142,142-142ZM781,674.5c0,58.82-47.68,106.5-106.5,106.5H177.5c-58.82,0-106.5-47.68-106.5-106.5v-355c0-19.61,15.89-35.5,35.5-35.5h106.5v71c0,19.61,15.89,35.5,35.5,35.5s35.5-15.89,35.5-35.5v-71h284v71c0,19.61,15.89,35.5,35.5,35.5s35.5-15.89,35.5-35.5v-71h106.5c19.61,0,35.5,15.89,35.5,35.5v355Z"/>
  </g>
</svg>