<svg width="44" height="44" viewBox="0 0 44 44" fill="none" xmlns="http://www.w3.org/2000/svg">
<g clip-path="url(#clip0_80_296)">
<path d="M22 0C9.86981 0 0 9.86773 0 22.0013C0 34.1349 9.86981 44 22 44C34.1302 44 44 34.1323 44 22.0013C44 9.86773 34.1302 0 22 0ZM22 39.0212C18.6265 39.0212 15.3609 38.0287 12.5584 36.1515L11.8467 35.677L15.8542 31.6694C15.1532 30.9496 14.6975 30.2372 14.4274 29.7439C13.9014 28.7702 13.6293 27.8158 13.4946 26.9848L8.32514 32.1546L7.85068 31.4428C5.97362 28.6408 4.98114 25.375 4.98114 22.0007C4.98114 12.6155 12.6154 4.98078 22 4.98078C25.3762 4.98078 28.6397 5.97063 31.4443 7.84781L32.1533 8.3223L30.5134 9.96223L30.6026 11.1002C30.6649 11.9607 30.616 13.1798 30.1603 14.5201L30.6481 14.5958L30.7239 15.7311C30.7453 16.087 30.748 16.4429 30.7266 16.7967L35.6749 11.8481L36.152 12.5572C38.0264 15.3619 39.0189 18.625 39.0189 22.0013C39.0189 31.3839 31.3846 39.0212 22 39.0212Z" fill="#134922"/>
<path d="M28.41 14.5067C25.8253 14.4263 23.2767 15.5696 22.0564 17.8724C20.8314 15.5415 18.1414 14.3338 15.479 14.5175C14.6319 12.8641 14.6514 11.3328 14.6969 10.68C18.2882 10.1224 21.7354 12.1926 21.9432 15.839C22.1429 12.212 25.5525 10.1345 29.1867 10.68C29.2765 11.9621 29.0259 13.3011 28.41 14.5067Z" fill="#134922"/>
<path d="M28.5177 19.6631C25.9236 19.4841 23.1948 20.6436 21.943 23.0153C20.7595 20.7736 18.1138 19.4942 15.5841 19.6524C14.7511 17.999 14.7645 16.4724 14.8127 15.8256C18.2204 15.1762 21.8452 17.2819 22.0563 20.9847C22.2379 17.353 25.8077 15.2077 29.3052 15.8256C29.3903 17.1439 29.1195 18.4842 28.5177 19.6631Z" fill="#134922"/>
<path d="M28.4132 24.798C25.988 24.6412 23.296 25.8321 22.0569 28.161C20.8078 25.7966 18.1922 24.6982 15.4768 24.8061C14.6324 23.1527 14.6519 21.6294 14.6974 20.974C18.2793 20.4144 21.7688 22.51 21.9437 26.1303C22.1078 22.9296 25.0565 20.3842 29.1872 20.974C29.2328 21.6241 29.2522 23.1507 28.4132 24.798Z" fill="#134922"/>
<path d="M22.065 33.9325H22.0463C17.9095 33.9325 14.5065 30.3672 14.8134 26.1196C18.266 25.4635 21.8486 27.6201 22.057 31.2733C22.2238 27.9793 25.2964 25.5305 29.3059 26.1196C29.5646 30.4181 26.2447 33.899 22.065 33.9325Z" fill="#134922"/>
</g>
<defs>
<clipPath id="clip0_80_296">
<rect width="44" height="44" fill="white"/>
</clipPath>
</defs>
</svg>
