<?xml version="1.0" encoding="UTF-8"?>
<svg id="Calque_2" data-name="Calque 2" xmlns="http://www.w3.org/2000/svg" viewBox="0 0 852 710">
  <defs>
    <style>
      .cls-1 {
        fill: #fff;
        stroke-width: 0px;
      }
    </style>
  </defs>
  <g id="Capa_1" data-name="Capa 1">
    <path class="cls-1" d="M745.5,0H106.5C47.93,0,0,47.92,0,106.5v497c0,58.57,47.93,106.5,106.5,106.5h639c58.57,0,106.5-47.93,106.5-106.5V106.5c0-58.58-47.93-106.5-106.5-106.5ZM426,142c78.46,0,142,63.54,142,142s-63.54,142-142,142-142-63.54-142-142,63.54-142,142-142ZM639,639H213v-35.5c0-58.57,47.92-106.5,106.5-106.5h213c58.57,0,106.5,47.93,106.5,106.5v35.5Z"/>
  </g>
</svg>